<svg width="39" height="37" viewBox="0 0 39 37" fill="none" xmlns="http://www.w3.org/2000/svg">
<path d="M38.9458 19.1382C38.983 19.8595 38.7847 20.7893 38.5392 21.4665C38.4632 21.6783 38.3279 21.5379 38.2677 21.6806C38.1495 21.9572 38.1649 22.2464 38.0234 22.5128C37.9758 22.6005 37.7602 22.4237 37.7159 22.5158C37.4745 23.0187 37.3897 23.5298 37.1584 24.037C36.0208 26.5162 34.5427 28.7327 32.6212 30.5985C31.9863 31.2181 31.0508 31.7609 30.4034 32.3886C30.3277 32.4625 30.5126 32.5988 30.508 32.6255C30.4248 33.0412 30.2376 32.622 30.0382 32.697C29.2461 32.9942 28.4914 33.4529 27.8528 33.9032C27.5805 34.0948 28.0828 34.3216 27.6689 34.2645C27.6406 34.2607 27.6044 34.014 27.5126 34.0345C27.3061 34.0814 26.9788 34.2927 26.8268 34.344C26.5342 34.4423 26.4908 34.4646 26.2258 34.5792C25.8607 34.7339 25.3861 34.7988 25.0075 34.9913C24.9265 35.0331 25.1211 35.2193 24.9977 35.3066C24.8747 35.3946 24.5009 35.4978 24.3597 35.4818C24.2186 35.4665 24.2155 35.2692 24.1808 35.2346C23.8976 34.9408 23.623 35.5454 23.567 35.5724C22.6141 36.0494 21.6669 35.931 20.7135 36.042C19.9897 36.1266 19.2158 36.2623 18.5137 36.2502C18.5079 36.2501 18.5021 36.25 18.4963 36.2499C17.6551 36.2307 16.9618 36.0563 16.1566 35.9821C16.0715 35.9737 16.1365 36.267 16.0314 36.2569C14.9134 36.1482 13.8109 35.8772 12.8071 35.3661C12.7068 35.3146 12.9168 35.1198 12.8222 35.0543C12.2295 34.6609 11.4809 33.8367 10.6761 34.6563C10.2712 34.4315 9.78319 34.1411 9.52815 33.7548C9.36451 33.5059 9.71713 33.3911 9.38309 33.3377C9.30784 33.3249 9.27336 33.5776 9.16832 33.542C8.72474 33.3904 8.3371 33.0598 7.89043 32.9064C7.79897 32.8754 7.70077 33.0653 7.65715 33.0819C7.29309 33.2102 7.28249 32.5722 7.24241 32.4957C6.91468 31.909 6.50795 31.7199 6.08325 31.3404C5.98548 31.252 5.91417 31.5696 5.81229 31.491C5.28578 31.079 4.80648 30.5696 4.46351 30.0029C4.38803 29.8765 4.65725 29.8119 4.63092 29.7436C4.51645 29.4465 4.1262 29.697 4.01295 29.4089C3.98914 29.3487 4.17113 29.242 4.18152 29.2188C4.34779 28.8582 3.86124 29.0638 3.82335 29.0343C3.34663 28.6804 3.55954 28.0728 3.19754 27.6735C3.15339 27.6249 3.01709 27.8944 2.9057 27.7472C2.1619 26.7663 1.60968 25.5548 1.36425 24.3578C1.32581 24.1719 1.55894 24.2242 1.57719 24.2041C1.86367 23.8912 1.34525 23.9598 1.30563 23.908C1.00822 23.5004 1.28488 22.9525 0.611134 22.8081C0.317879 21.1808 -0.0915928 19.5639 0.10907 17.9229C0.158644 17.5193 0.245122 17.1273 0.379434 16.738C0.387461 16.7132 0.635125 16.7753 0.65005 16.7262C0.837678 16.1386 0.440316 16.2277 0.0124469 15.7594C-0.0944049 15.638 0.520429 15.4045 0.56647 15.3867C0.735171 15.3121 1.08987 15.4685 1.12457 15.4405C1.3993 15.2163 0.169863 15.0612 0.237989 14.6821C0.242167 14.6709 0.456911 14.7612 0.484937 14.7342C0.572637 14.6511 0.502389 14.5387 0.598237 14.4604C0.820593 14.2811 1.42115 14.3405 1.15569 13.9456C1.12192 13.8944 0.422294 13.7927 0.539145 13.4705C0.584031 13.3423 0.738285 12.761 0.834798 12.6163C0.928922 12.4708 1.10915 12.6495 1.12215 12.6409C1.54408 12.313 1.60976 12.5126 2.09734 12.4563C2.58281 12.4073 1.57463 12.105 1.4955 11.9795C1.41633 11.8537 1.76368 11.6391 1.87263 11.6002C1.9814 11.5599 2.07824 11.7037 2.14902 11.6581C2.61473 11.3617 1.7443 11.2717 1.65088 11.0639C1.43647 10.5638 2.26888 10.6253 2.48036 10.3722C2.53856 10.3021 2.34723 10.2873 2.36831 10.2087C2.45638 9.89649 2.75796 9.84743 2.74057 9.42602C2.7364 9.35902 2.48249 8.86304 2.87729 8.87862C2.93355 8.88189 3.05969 9.04745 3.16702 8.95641C3.32737 8.82011 3.55741 8.54397 3.62527 8.33099C3.67549 8.17309 3.30792 8.14173 3.50493 8.03225C3.59263 7.98447 3.65146 8.22675 3.80263 8.12956C3.95219 8.03291 4.19516 7.69038 4.28917 7.56031C4.38193 7.42998 4.13697 7.34956 4.13187 7.32937C4.10577 7.20916 4.21167 6.89036 4.23031 6.8691C5.10923 5.75492 6.31827 5.15817 7.28857 4.23133C7.36597 4.15844 7.15379 3.99876 7.16398 3.98555C7.39091 3.67738 7.57424 4.39316 7.90886 4.42708C7.5698 4.03181 7.74449 4.01736 7.91801 3.82376C8.00187 3.73011 7.83149 3.60424 7.82866 3.58097C7.80463 3.2238 8.13713 3.47568 8.20847 3.52485C8.47406 3.70367 8.3889 3.33921 8.56658 3.46057C8.74155 3.58209 8.74662 3.92664 8.9434 3.79527C8.9003 3.60201 8.48526 3.29014 8.60018 3.12334C9.03946 2.47693 10.4062 2.18581 10.933 2.00484C11.4632 1.81193 11.6209 1.71603 11.95 1.66035C12.5458 1.56817 12.2183 1.30545 12.5188 1.02701C12.8254 0.751804 12.9239 1.65458 13.0329 1.81951C13.1389 1.9858 13.1318 1.78209 13.223 1.86354C13.3132 1.94538 13.2242 2.10863 13.3739 2.10369C13.521 2.09842 13.8079 1.66482 13.8098 1.45876C13.8094 1.02192 13.513 0.639165 13.9487 0.68878C13.9734 0.692155 13.9572 0.936716 14.0487 0.938262C14.7706 0.943971 15.486 0.822411 16.1903 0.893137C16.2869 0.903332 16.2356 1.17148 16.2915 1.18048C16.8716 1.28027 16.6203 0.869455 16.8954 0.355031C16.8817 1.00678 17.0862 1.3819 17.5059 1.3611C17.7604 1.35012 17.7014 1.07055 17.862 0.8649C17.9108 0.80282 18.0996 0.991823 18.1299 0.858467C18.2328 0.422822 18.0456 -0.0635245 18.5137 0.126942C18.5139 0.127022 18.5141 0.127102 18.5142 0.127182C18.5215 0.130428 18.518 0.162083 18.5137 0.202347C18.5079 0.255322 18.5007 0.323201 18.5137 0.360884C18.5188 0.375817 18.5271 0.38601 18.5399 0.388674C18.9882 0.486313 19.05 0.0323931 19.5494 0.00120813C19.9447 -0.0233299 20.6056 0.315052 21.0285 0.420367C20.9253 1.13994 21.334 1.0296 21.5826 0.56363C21.8579 0.63001 22.1612 0.658978 22.4144 0.784277C22.501 0.827125 22.3962 1.02004 22.4029 1.04478C22.4996 1.43115 22.7229 0.982552 22.7875 0.978166C23.4748 0.951913 23.8783 1.45563 24.5849 1.31611C24.6095 1.31099 24.8122 0.845643 24.8496 1.25102C24.8506 1.27851 24.5782 1.42466 24.85 1.54179C25.1252 1.65987 25.5305 2.11212 25.995 2.06504C26.1062 2.0526 26.5113 1.78655 26.5563 2.16482C26.5615 2.21572 26.472 2.33345 26.4713 2.42278C26.4685 2.70735 26.7577 2.2804 26.6911 2.73336C26.6245 3.18673 26.7218 3.60173 27.2095 3.53527C27.2242 3.5337 27.5079 3.22919 27.6146 3.29946C27.7846 3.41133 27.9846 3.63337 28.1621 3.74493C28.2474 3.7983 28.33 3.55235 28.3472 3.55798C29.0017 3.81759 29.2758 4.29104 29.7794 4.82191C29.87 4.91798 30.3909 4.90677 30.4062 5.28445C30.4177 5.69532 29.3844 6.41685 30.0262 6.61666C30.2747 6.69182 31.6332 5.83078 31.3655 6.73567C32.1318 7.27175 32.3215 8.18074 33.0581 8.76369C33.0909 8.78971 33.5278 8.65778 33.5768 8.74475C33.6482 8.8732 33.5178 9.04985 33.5604 9.14403C33.734 9.5415 34.0811 9.79866 34.2516 10.1835C34.3159 10.3291 34.103 10.3762 34.1765 10.5484C34.2487 10.7195 34.555 10.7126 34.5402 11.0018C34.5281 11.2215 34.0834 11.6216 34.1144 11.8702C34.6358 11.6647 34.6927 11.8276 34.9414 12.066C34.9894 12.1119 35.1493 11.9829 35.1815 12.0012C35.317 12.0756 35.202 12.2326 35.3422 12.3004C35.376 12.3171 35.557 12.2548 35.595 12.2653C35.926 12.3547 35.6151 12.7936 35.5579 12.8639C35.3464 13.1422 35.6111 13.1601 35.5464 13.3418C35.4804 13.521 35.2833 13.3378 35.2659 13.5281C35.2295 13.9201 35.3678 14.3674 35.4308 14.7344C35.4571 14.8801 35.6885 14.7322 35.6981 14.7519C35.822 15.0478 35.6022 15.3987 36.1305 15.4966C34.8561 15.8937 36.2864 15.6646 36.0755 16.1512C36.058 16.1894 35.4432 16.2952 35.3385 16.1754C35.2338 16.0567 35.4032 15.836 35.2366 15.6768C35.1977 15.6368 34.5851 15.4893 34.5449 15.4651C34.2323 15.2661 35.1402 15.0677 35.1881 15.0437C35.7026 14.7861 35.0248 14.6087 34.9658 14.545C34.6955 14.2388 34.7487 13.9186 34.5312 13.6694C34.3897 13.5075 33.8 13.6642 33.776 13.5209C33.6939 13.0519 34.4314 12.587 33.5759 12.4143C33.3925 12.379 32.8127 12.7173 33.167 12.2013C33.1905 12.1708 33.5277 11.7386 33.1875 11.7232C33.1449 11.7216 32.9682 11.8022 32.9432 11.7866C32.7793 11.6813 32.8726 11.5164 32.7271 11.3876C32.5815 11.2591 32.3865 11.1212 32.3479 10.9121C32.3251 10.7869 32.5625 10.4714 32.6087 10.3741C32.7441 10.0967 32.2902 10.1528 32.4989 9.90244C32.7056 9.64612 33.2239 9.58711 33.2365 9.22744C32.8034 9.48609 32.3522 9.74116 31.9149 9.99866C31.6118 9.48624 31.3977 8.90793 30.9971 8.44873C30.9472 8.39254 30.7851 8.62282 30.7268 8.56805C30.4829 8.33866 30.4357 7.99026 30.1409 7.78597C29.912 7.62886 29.5025 7.62161 29.2556 7.48461C29.5351 6.95106 29.0887 6.80441 28.8938 6.56965C28.8246 6.48658 28.9296 6.37367 28.9031 6.28563C28.7978 5.95633 28.5785 6.43768 28.4676 6.45032C27.997 6.51166 28.6886 5.58529 28.3358 5.3582C28.3158 5.34419 27.7435 5.69009 27.6944 5.70306C27.3678 5.77951 27.7871 5.50621 27.696 5.38776C27.529 5.17254 27.4535 4.94632 27.0972 4.9363C26.9915 4.93322 26.6149 5.15285 26.6173 4.81148C26.6172 4.76653 26.7301 4.59686 26.72 4.57729C26.5261 4.23735 26.2052 4.79241 25.942 4.89604C25.6805 5.0007 25.6299 4.48144 25.6302 4.34036C25.6352 3.97636 25.7998 4.26711 25.8213 4.24237C26.0838 3.94457 25.8603 3.90517 25.7234 3.80373C25.9737 3.22832 25.7367 3.15855 25.5797 3.70116C25.5626 3.76031 25.7054 3.76319 25.7234 3.80373C25.3224 4.29315 25.0816 4.26694 25.0508 3.62836C25.0349 3.32949 25.2738 3.08635 24.8483 3.03711C24.6556 3.01635 24.5645 3.44418 24.3737 3.49673C23.9425 3.61843 23.6324 3.08774 23.247 3.03981C23.1099 3.02326 23.1698 3.28719 23.0749 3.2842C22.825 3.27821 22.6617 3.05092 22.4009 3.08038C22.3776 3.08346 22.3707 3.33622 22.2973 3.32162C21.7404 3.21755 21.2816 2.9691 20.6866 2.88371C20.399 2.84127 19.8725 2.92564 19.5778 2.88085C19.2456 2.8292 18.872 2.65674 18.5137 2.5704C18.3167 2.52248 18.1293 2.50056 17.9702 2.53687C17.6791 2.6034 17.7559 2.84887 17.6413 3.02315C17.4269 3.36012 16.9704 2.81269 16.9 2.72957C16.8975 2.72641 17.1421 2.64562 16.9971 2.5313C16.894 2.27513 16.9023 2.72822 16.9 2.72957C16.8568 2.67312 16.3485 2.67511 16.2568 2.73769C16.2068 2.77071 16.2692 2.99858 16.2429 3.0114C15.6167 3.31194 15.0034 3.49847 14.3347 3.56646C14.3221 3.56497 14.2705 3.30742 14.2415 3.30719C13.8327 3.29901 13.6828 3.68239 13.4485 3.96221C13.214 4.24287 12.9685 4.26816 12.6273 3.91899C12.425 4.05877 12.0284 4.01184 11.7933 3.98667C11.5576 3.96144 11.7493 4.43621 11.7381 4.4524C11.3908 4.97635 10.99 4.85711 10.4765 5.10309C10.2322 5.21837 9.82286 5.56572 9.6186 5.7764C9.45732 5.94218 9.27645 5.92489 9.15261 6.11169C9.13597 6.1368 9.29448 6.30197 9.29279 6.31413C9.2725 6.66895 9.02612 6.15997 8.92744 6.11014C8.56887 5.93061 8.35617 5.85108 8.2232 6.17918C8.19035 6.25618 8.54963 6.9983 8.4903 7.11214C8.40931 7.26158 8.26504 7.00659 8.18488 7.17127C8.17796 7.1852 8.29818 7.31449 8.21684 7.37801C7.84127 7.67438 7.39683 7.9753 7.07568 8.36134C7.03161 8.41333 7.2985 8.53526 7.23942 8.61249C6.96242 8.9747 6.64648 9.3521 6.27926 9.63504C6.18809 9.70436 6.0691 9.53391 6.00776 9.51925C5.63238 9.43621 5.93121 9.90609 5.92159 9.93807C5.67416 10.746 4.95944 11.0609 4.79505 11.9206C4.78488 11.9707 5.14626 12.5036 4.6549 12.4591C4.62256 12.4549 4.11577 12.4161 4.37059 12.6679C4.38683 12.6831 4.65216 12.6866 4.56781 12.8316C4.48272 12.979 4.54768 13.2804 4.21665 13.4096C4.11283 13.4485 3.59781 13.4722 3.90048 13.7966C3.91949 13.8237 4.66263 14.373 4.05661 14.3298C3.95708 14.3227 3.348 14.1429 3.59825 14.4804C3.6475 14.544 3.80579 14.4899 3.86087 14.6375C3.94683 14.8612 3.72459 15.0868 3.95758 15.3775C3.99843 15.4301 4.3908 15.6744 4.0471 15.7618C3.99318 15.776 3.79105 15.7007 3.75594 15.7724C3.58791 16.1165 3.68456 16.514 3.51178 16.8724C3.45117 17.0012 3.11489 16.9094 3.01466 17.0464C2.91415 17.1839 2.81455 17.4709 2.96829 17.6249C3.12198 17.7765 3.66822 17.6255 3.70969 17.8404C3.71511 17.8679 3.72017 17.8954 3.72489 17.9229C3.88008 18.8133 3.66247 19.7165 3.79211 20.6231C3.81219 20.7599 3.98027 20.6102 4.02476 20.806C4.18199 21.5418 4.74082 22.676 4.62662 23.4316C4.53429 24.0506 4.03217 23.5326 4.07656 23.9685C4.10221 24.1841 4.76811 24.1081 4.80568 24.1395C5.1883 24.4608 5.09303 24.8712 5.38002 25.1889C5.43914 25.2534 5.61668 25.0502 5.66412 25.1055C5.82735 25.2912 5.86893 25.5695 6.01782 25.7531C6.08508 25.8349 6.23604 25.7084 6.27769 25.7956C6.38006 26.0031 6.43165 26.2143 6.42331 26.5068C6.42296 26.5339 6.1425 26.568 6.24205 26.7135C6.40274 26.9466 6.49045 27.3415 6.84934 27.4668C6.9568 27.5036 7.29142 27.2074 7.20044 27.5672C7.18174 27.6421 6.74882 27.9675 7.25593 27.8296C7.34321 27.8112 8.06467 27.6568 7.92116 28.0786C7.88321 28.1902 7.67652 28.6022 7.81131 28.6334C7.83038 28.6361 7.94855 28.4175 8.03497 28.466C8.33641 28.6391 8.5869 28.8905 8.90432 29.0501C8.98892 29.0917 9.03894 28.8127 9.1587 28.8795C9.48686 29.0621 9.82016 29.3848 10.0809 29.6529C10.1767 29.7522 9.985 29.872 9.98049 29.896C9.91365 30.29 10.2642 29.9294 10.3227 29.9327C10.6891 29.9621 10.7828 30.2868 11.0778 30.3821C11.1585 30.4084 11.221 30.1744 11.2456 30.1641C11.4921 30.0664 11.1783 30.3752 11.2516 30.4681C11.4575 30.7298 11.7748 30.868 12.0689 30.9707C12.1768 31.0077 12.1751 30.7074 12.2694 30.7427C12.8292 30.9465 13.3889 31.1888 13.9003 31.508C13.9969 31.5686 13.8681 31.7479 13.8759 31.8005C13.9333 32.17 14.2921 31.7977 14.3534 31.7693C14.6407 31.6426 14.6848 31.8452 14.9024 31.8627C15.9594 31.9478 17.2148 32.2245 18.2185 32.3126C18.3181 32.3219 18.4164 32.3309 18.5137 32.3394C19.6778 32.4372 20.6662 32.5009 21.7956 32.2162C21.873 32.1965 21.7359 31.9406 21.8008 31.9202C22.6345 31.6694 23.4884 31.5185 24.2678 31.1141C24.3312 31.0815 24.1369 30.8755 24.2339 30.8152C24.4324 30.6898 24.702 30.5857 24.9496 30.561C25.0706 30.5482 25.029 30.8198 25.1502 30.8019C25.4334 30.7599 25.7051 30.6407 25.9312 30.4669C26.0264 30.3926 25.7387 30.2434 25.8708 30.166C26.768 29.6289 27.5551 29.0165 28.5842 28.5759C28.6542 28.546 29.0709 28.9116 29.1192 28.7242C29.0248 28.6038 28.9027 28.4722 28.796 28.3488C29.8596 27.2489 30.9581 26.1742 31.7449 24.8335C31.7775 24.7775 31.4693 24.7324 31.53 24.6247C31.8813 23.9965 32.0918 23.3468 32.6179 22.7553C32.6694 22.6961 33.1392 22.9072 33.1404 22.6694C33.1409 22.6278 33.1823 22.2857 33.1001 22.1715C33.0874 22.1556 32.8416 22.1413 32.8658 22.039C33.0106 21.4439 33.2085 20.8413 33.4532 20.2559C33.4931 20.161 33.7273 20.3077 33.7579 20.2395C33.9742 19.7497 33.8395 19.1751 34.0952 18.6931C34.2662 18.3683 34.7001 18.5088 35.1393 18.3342C35.2015 18.3091 35.2149 18.0879 35.4668 18.078C36.1012 18.0518 36.7942 18.1761 37.4706 18.1358C37.6169 18.1272 37.4609 17.7832 37.8123 17.9877C37.8362 18.0019 37.9504 18.2545 38.0679 18.32C38.1494 18.3656 38.4076 18.2914 38.5111 18.3845C38.6144 18.4785 38.3968 18.5712 38.5146 18.7256C38.6332 18.8817 38.9293 18.8268 38.9458 19.1382ZM10.7227 3.90917C10.4348 3.78409 10.8357 4.58733 10.9147 4.30261C10.918 4.28794 10.7371 3.91519 10.7227 3.90917ZM31.9317 8.51149C32.0924 8.06583 31.5236 8.28564 31.3911 8.61276C31.2539 8.93468 31.8809 8.64433 31.9317 8.51149ZM33.5912 10.621C33.725 10.2029 32.5838 10.7679 32.9547 10.9208C32.9757 10.9298 33.5831 10.645 33.5912 10.621ZM35.2154 19.2204C35.2277 19.2187 35.2514 19.0601 35.2397 19.0553C34.9618 18.9518 34.9151 19.2631 35.2154 19.2204ZM34.9119 12.9925C35.0468 12.8468 34.7689 12.6444 34.6045 12.8267C34.4719 12.9707 34.7437 13.1702 34.9119 12.9925ZM2.87605 10.5602C2.86255 10.5571 2.79886 10.6585 2.86788 10.6897C3.08976 10.7896 3.10086 10.6133 2.87605 10.5602ZM35.6859 17.5447C35.715 16.8743 36.7245 16.346 36.6533 17.1475C36.6387 17.2892 36.3035 16.8596 36.2179 17.0441C36.0613 17.3704 36.727 17.5743 36.3743 17.9167C36.3104 17.974 35.6829 17.5798 35.6844 17.5435C35.6849 17.5439 35.6854 17.5443 35.6859 17.5447ZM10.1173 3.01005C10.108 3.00135 9.95624 3.07034 9.95848 3.08274C10.0169 3.37492 10.3175 3.23864 10.1173 3.01005ZM0.599322 17.2097C0.5726 17.2175 0.537317 17.6125 0.561488 17.6261C1.02149 17.8346 1.0927 17.0593 0.599322 17.2097ZM21.0327 0.440517C21.2558 0.181229 21.4934 0.183439 21.5818 0.563128C21.4009 0.513741 21.2152 0.48296 21.0327 0.440517Z" fill="#5C6C58"/>
<path d="M18.1699 10.4365C18.2025 10.6318 18.235 10.9411 18.2676 11.3643C18.3001 11.7874 18.349 12.2269 18.4141 12.6826C18.4792 13.1058 18.5605 13.5127 18.6582 13.9033C18.7559 14.2614 18.8698 14.5055 19 14.6357C18.9349 15.0589 18.9186 15.4495 18.9512 15.8076C19.0163 16.1657 19.0977 16.5563 19.1953 16.9795C19.1302 16.9795 19.0814 17.0609 19.0488 17.2236C19.0488 17.3538 19.0488 17.5003 19.0488 17.6631C19.0814 17.8258 19.1139 17.9886 19.1465 18.1514C19.179 18.3141 19.1953 18.4118 19.1953 18.4443C19.7161 18.6396 20.2533 18.721 20.8066 18.6885C21.36 18.6559 21.9134 18.6396 22.4668 18.6396C22.6296 18.6396 22.7923 18.6722 22.9551 18.7373C23.1178 18.8024 23.2806 18.7699 23.4434 18.6396C23.7038 18.7699 23.9967 18.835 24.3223 18.835C24.6478 18.8024 24.9408 18.8187 25.2012 18.8838C25.3639 18.8512 25.429 18.9326 25.3965 19.1279C25.3639 19.2907 25.4453 19.3395 25.6406 19.2744C25.901 19.307 26.1126 19.2093 26.2754 18.9814C26.4707 18.7536 26.7474 18.6722 27.1055 18.7373C27.2357 18.7699 27.3171 18.8187 27.3496 18.8838C27.3822 18.9489 27.4473 19.014 27.5449 19.0791C27.5775 19.2093 27.6426 19.2907 27.7402 19.3232C27.8379 19.3558 27.8704 19.4535 27.8379 19.6162C27.6426 19.9417 27.4798 20.1045 27.3496 20.1045C27.2194 20.0719 27.1706 20.1208 27.2031 20.251C27.0729 20.3486 26.959 20.4626 26.8613 20.5928C26.7637 20.6904 26.666 20.7881 26.5684 20.8857C26.373 20.8532 26.0964 20.8206 25.7383 20.7881C25.4128 20.723 25.1686 20.723 25.0059 20.7881C24.9408 20.7881 24.8105 20.723 24.6152 20.5928C24.4525 20.43 24.2409 20.4788 23.9805 20.7393C23.7526 20.5765 23.4922 20.5114 23.1992 20.5439C22.9062 20.5439 22.6296 20.5114 22.3691 20.4463C22.2389 20.4137 22.1087 20.3812 21.9785 20.3486C21.8809 20.3161 21.7669 20.2835 21.6367 20.251C21.474 20.251 21.3112 20.2673 21.1484 20.2998C21.0182 20.3324 20.8717 20.3486 20.709 20.3486C20.4486 20.3486 20.1719 20.3161 19.8789 20.251C19.6185 20.1859 19.3581 20.1859 19.0977 20.251C18.9349 20.4137 18.8698 20.6253 18.9023 20.8857C18.9674 21.1462 19 21.3577 19 21.5205C19 21.7158 18.9674 21.9111 18.9023 22.1064C18.8372 22.2692 18.8047 22.4482 18.8047 22.6436C18.8047 22.7738 18.821 22.8877 18.8535 22.9854C18.8861 23.083 18.9023 23.2132 18.9023 23.376C18.9023 23.5387 18.8698 23.6852 18.8047 23.8154C18.7721 23.9456 18.7396 24.0921 18.707 24.2549C18.707 24.5479 18.7233 24.8408 18.7559 25.1338C18.821 25.3942 18.7559 25.6546 18.5605 25.915C18.528 26.0778 18.5443 26.2568 18.6094 26.4521C18.6745 26.6475 18.6257 26.7939 18.4629 26.8916C18.4954 27.0218 18.528 27.152 18.5605 27.2822C18.6257 27.3799 18.6582 27.4938 18.6582 27.624C18.3978 27.9495 18.1699 28.1286 17.9746 28.1611C17.8118 28.1937 17.6328 28.2262 17.4375 28.2588C17.2747 28.096 17.112 27.9658 16.9492 27.8682C16.7865 27.7705 16.7051 27.5752 16.7051 27.2822C16.8678 26.9567 16.9329 26.7777 16.9004 26.7451C16.9004 26.68 16.9004 26.6149 16.9004 26.5498C16.9329 26.387 16.9655 26.2568 16.998 26.1592C17.0632 26.029 17.0957 25.8825 17.0957 25.7197C17.0957 25.4919 17.0632 25.2803 16.998 25.085C16.9329 24.8896 16.9004 24.6781 16.9004 24.4502C16.9004 24.3525 16.9167 24.2712 16.9492 24.2061C17.0143 24.1084 17.0632 24.0107 17.0957 23.9131C17.1608 23.6852 17.1771 23.4736 17.1445 23.2783C17.112 23.0505 17.0957 22.8389 17.0957 22.6436C17.1283 22.2529 17.1771 21.8623 17.2422 21.4717C17.3398 21.0811 17.3561 20.7067 17.291 20.3486C17.0957 20.3161 16.9004 20.2835 16.7051 20.251C16.5098 20.2184 16.2982 20.1859 16.0703 20.1533C15.9076 20.1533 15.7448 20.1859 15.582 20.251C15.4193 20.2835 15.2565 20.2835 15.0938 20.251C14.9635 20.251 14.8333 20.2347 14.7031 20.2021C14.6055 20.137 14.4915 20.0882 14.3613 20.0557C14.0033 20.0231 13.6289 20.0231 13.2383 20.0557C12.8802 20.0557 12.5221 20.0882 12.1641 20.1533C12.0013 20.1859 11.8548 20.251 11.7246 20.3486C11.5944 20.4137 11.4479 20.4463 11.2852 20.4463C10.8294 20.3812 10.5039 20.3812 10.3086 20.4463C10.1458 20.4788 9.95052 20.4788 9.72266 20.4463C9.49479 20.4137 9.36458 20.4626 9.33203 20.5928C9.33203 20.6904 9.25065 20.7393 9.08789 20.7393C8.69727 20.7067 8.45312 20.5277 8.35547 20.2021C8.25781 19.8766 8.25781 19.5674 8.35547 19.2744C9.29948 19.1117 10.2435 18.9652 11.1875 18.835C12.1641 18.7048 13.1243 18.5745 14.0684 18.4443C14.1335 18.542 14.3125 18.6071 14.6055 18.6396C14.8984 18.6396 15.224 18.6396 15.582 18.6396C15.9727 18.6396 16.3307 18.6396 16.6562 18.6396C17.0143 18.6071 17.2585 18.6071 17.3887 18.6396C17.4538 18.4769 17.5026 18.3141 17.5352 18.1514C17.5677 17.9886 17.5189 17.8421 17.3887 17.7119C17.4212 17.6143 17.4375 17.4515 17.4375 17.2236C17.4375 16.9632 17.4375 16.6865 17.4375 16.3936C17.4375 16.1006 17.4212 15.8402 17.3887 15.6123C17.3561 15.3844 17.3236 15.238 17.291 15.1729V14.4404C17.291 14.2777 17.2422 14.18 17.1445 14.1475C17.0469 14.0824 16.998 13.9684 16.998 13.8057C17.0632 13.6755 17.0957 13.5127 17.0957 13.3174C17.0957 13.0895 17.0632 12.8617 16.998 12.6338C16.9655 12.3734 16.9167 12.1292 16.8516 11.9014C16.7865 11.6735 16.7376 11.4945 16.7051 11.3643C16.6725 10.9736 16.64 10.7946 16.6074 10.8271C16.5749 10.8271 16.5586 10.7946 16.5586 10.7295C16.526 10.5993 16.5586 10.4854 16.6562 10.3877C16.7539 10.29 16.8027 10.1924 16.8027 10.0947C17.3561 9.99707 17.8118 10.111 18.1699 10.4365Z" fill="#5D6C58"/>
</svg>
